<svg xmlns="http://www.w3.org/2000/svg" width="100.033" height="99.933" viewBox="-0.017 -0.017 100.033 99.933"><path d="M93.56 0H6.442A6.449 6.449 0 0 0 0 6.442v70.814c0 3.551 2.89 6.44 6.442 6.44h5.507a1.463 1.463 0 1 0 0-2.926H6.442a3.518 3.518 0 0 1-3.515-3.514v-5.552h53.32v2.522h-1.16a2.881 2.881 0 0 0-2.879 2.879v3.665h-31.36a1.464 1.464 0 0 0 0 2.927h14.071v5.249H30.5a5.352 5.352 0 0 0-5.346 5.346v3.161a2.442 2.442 0 0 0 2.44 2.44h44.702a2.442 2.442 0 0 0 2.44-2.44v-3.161a5.352 5.352 0 0 0-5.347-5.346H64.97v-1.85h27.056a2.881 2.881 0 0 0 2.878-2.88v-.688c2.853-.662 4.985-3.222 4.985-6.272L100 6.44A6.447 6.447 0 0 0 93.56 0ZM55.136 68.22v-7.016h36.842v7.015H55.136Zm4.038-9.943v-3.08H87.94v3.08H59.174Zm28.765 12.87v3.08H59.174v-3.08H87.94Zm-50.093 12.55h14.362v.52a2.881 2.881 0 0 0 2.879 2.878h6.956v1.85H37.846v-5.248Zm31.544 8.176a2.421 2.421 0 0 1 2.418 2.419v2.674H28.081v-2.674a2.422 2.422 0 0 1 2.42-2.419H69.39Zm22.588-7.705H55.136v-7.014h36.842v7.014Zm4.985-6.912a3.515 3.515 0 0 1-2.058 3.194v-3.346a2.882 2.882 0 0 0-2.879-2.878h-1.16v-2.522h6.097v5.552Zm0-8.479h-2.106c.03-.165.048-7.622.048-7.622a2.882 2.882 0 0 0-2.879-2.878h-1.16v-3.08h1.16a2.882 2.882 0 0 0 2.879-2.878v-7.113a2.882 2.882 0 0 0-2.879-2.879H83.76a1.463 1.463 0 1 0 0 2.928h8.217v7.015H55.136v-7.015h19.517a1.463 1.463 0 1 0 0-2.928H55.087a2.882 2.882 0 0 0-2.879 2.879v7.113a2.882 2.882 0 0 0 2.879 2.879h1.16v3.079h-1.16a2.882 2.882 0 0 0-2.879 2.878s.018 7.457.048 7.622H2.927V19.908h94.035v48.87Zm0-51.796H3.035V6.44a3.518 3.518 0 0 1 3.514-3.514h86.9a3.518 3.518 0 0 1 3.514 3.515V16.98Zm0 0" fill="#fff" fill-rule="evenodd" data-name="Path 1591"/></svg>